<?xml version="1.0" standalone="yes"?>

<svg version="1.1" viewBox="0.0 0.0 196.5538057742782 103.51181102362204" fill="none" stroke="none" stroke-linecap="square" stroke-miterlimit="10" xmlns="http://www.w3.org/2000/svg" xmlns:xlink="http://www.w3.org/1999/xlink"><clipPath id="p.0"><path d="m0 0l196.5538 0l0 103.51181l-196.5538 0l0 -103.51181z" clip-rule="nonzero"></path></clipPath><g clip-path="url(#p.0)"><path fill="#000000" fill-opacity="0.0" d="m0 0l196.5538 0l0 103.51181l-196.5538 0z" fill-rule="evenodd"></path><path fill="#434343" d="m14.698463 0.82671577l0.69291306 0.18897635l-14.07874 56.15748l-0.69291335 -0.18897629z" fill-rule="evenodd"></path><path stroke="#000000" stroke-width="1.0" stroke-linejoin="round" stroke-linecap="butt" d="m14.698463 0.82671577l0.69291306 0.18897635l-14.07874 56.15748l-0.69291335 -0.18897629z" fill-rule="evenodd"></path><path fill="#434343" d="m16.973768 1.385173l0.69291306 0.1889764l-14.078739 56.15748l-0.6929133 -0.18897629z" fill-rule="evenodd"></path><path stroke="#000000" stroke-width="1.0" stroke-linejoin="round" stroke-linecap="butt" d="m16.973768 1.385173l0.69291306 0.1889764l-14.078739 56.15748l-0.6929133 -0.18897629z" fill-rule="evenodd"></path><path fill="#434343" d="m19.249073 1.9436302l0.69291496 0.18897629l-14.078741 56.157482l-0.69291353 -0.18897629z" fill-rule="evenodd"></path><path stroke="#000000" stroke-width="1.0" stroke-linejoin="round" stroke-linecap="butt" d="m19.249073 1.9436302l0.69291496 0.18897629l-14.078741 56.157482l-0.69291353 -0.18897629z" fill-rule="evenodd"></path><path fill="#434343" d="m21.52438 2.502087l0.69291306 0.18897629l-14.07874 56.157482l-0.692914 -0.18897629z" fill-rule="evenodd"></path><path stroke="#000000" stroke-width="1.0" stroke-linejoin="round" stroke-linecap="butt" d="m21.52438 2.502087l0.69291306 0.18897629l-14.07874 56.157482l-0.692914 -0.18897629z" fill-rule="evenodd"></path><path fill="#434343" d="m23.799685 3.0605443l0.69291306 0.18897653l-14.07874 56.157482l-0.692914 -0.18897629z" fill-rule="evenodd"></path><path stroke="#000000" stroke-width="1.0" stroke-linejoin="round" stroke-linecap="butt" d="m23.799685 3.0605443l0.69291306 0.18897653l-14.07874 56.157482l-0.692914 -0.18897629z" fill-rule="evenodd"></path><path fill="#434343" d="m26.07499 3.6190012l0.69291306 0.18897629l-14.07874 56.157482l-0.69291306 -0.18897629z" fill-rule="evenodd"></path><path stroke="#000000" stroke-width="1.0" stroke-linejoin="round" stroke-linecap="butt" d="m26.07499 3.6190012l0.69291306 0.18897629l-14.07874 56.157482l-0.69291306 -0.18897629z" fill-rule="evenodd"></path><path fill="#434343" d="m28.350294 4.1774583l0.69291306 0.18897629l-14.078739 56.15748l-0.692914 -0.18897629z" fill-rule="evenodd"></path><path stroke="#000000" stroke-width="1.0" stroke-linejoin="round" stroke-linecap="butt" d="m28.350294 4.1774583l0.69291306 0.18897629l-14.078739 56.15748l-0.692914 -0.18897629z" fill-rule="evenodd"></path><path fill="#434343" d="m30.625599 4.7359157l0.69291496 0.18897629l-14.078741 56.15748l-0.69291306 -0.18897629z" fill-rule="evenodd"></path><path stroke="#000000" stroke-width="1.0" stroke-linejoin="round" stroke-linecap="butt" d="m30.625599 4.7359157l0.69291496 0.18897629l-14.078741 56.15748l-0.69291306 -0.18897629z" fill-rule="evenodd"></path><path fill="#434343" d="m32.900906 5.2943726l0.69291306 0.18897629l-14.078741 56.157482l-0.69291306 -0.18897629z" fill-rule="evenodd"></path><path stroke="#000000" stroke-width="1.0" stroke-linejoin="round" stroke-linecap="butt" d="m32.900906 5.2943726l0.69291306 0.18897629l-14.078741 56.157482l-0.69291306 -0.18897629z" fill-rule="evenodd"></path><path fill="#434343" d="m35.17621 5.85283l0.69291306 0.18897629l-14.078739 56.157482l-0.69291306 -0.18897629z" fill-rule="evenodd"></path><path stroke="#000000" stroke-width="1.0" stroke-linejoin="round" stroke-linecap="butt" d="m35.17621 5.85283l0.69291306 0.18897629l-14.078739 56.157482l-0.69291306 -0.18897629z" fill-rule="evenodd"></path><path fill="#434343" d="m37.451515 6.411287l0.69291306 0.18897629l-14.078739 56.157482l-0.69291496 -0.18897629z" fill-rule="evenodd"></path><path stroke="#000000" stroke-width="1.0" stroke-linejoin="round" stroke-linecap="butt" d="m37.451515 6.411287l0.69291306 0.18897629l-14.078739 56.157482l-0.69291496 -0.18897629z" fill-rule="evenodd"></path><path fill="#434343" d="m39.72682 6.9697437l0.69291306 0.18897629l-14.078741 56.15748l-0.69291306 -0.18897629z" fill-rule="evenodd"></path><path stroke="#000000" stroke-width="1.0" stroke-linejoin="round" stroke-linecap="butt" d="m39.72682 6.9697437l0.69291306 0.18897629l-14.078741 56.15748l-0.69291306 -0.18897629z" fill-rule="evenodd"></path><path fill="#434343" d="m39.72682 6.9697437l0.69291306 0.18897629l-14.078741 56.15748l-0.69291306 -0.18897629z" fill-rule="evenodd"></path><path stroke="#000000" stroke-width="1.0" stroke-linejoin="round" stroke-linecap="butt" d="m39.72682 6.9697437l0.69291306 0.18897629l-14.078741 56.15748l-0.69291306 -0.18897629z" fill-rule="evenodd"></path><path fill="#434343" d="m42.002125 7.5282006l0.69291306 0.18897676l-14.078739 56.15748l-0.69291306 -0.18897629z" fill-rule="evenodd"></path><path stroke="#000000" stroke-width="1.0" stroke-linejoin="round" stroke-linecap="butt" d="m42.002125 7.5282006l0.69291306 0.18897676l-14.078739 56.15748l-0.69291306 -0.18897629z" fill-rule="evenodd"></path><path fill="#434343" d="m44.27743 8.0866585l0.69291306 0.18897629l-14.078741 56.15748l-0.69291306 -0.18897247z" fill-rule="evenodd"></path><path stroke="#000000" stroke-width="1.0" stroke-linejoin="round" stroke-linecap="butt" d="m44.27743 8.0866585l0.69291306 0.18897629l-14.078741 56.15748l-0.69291306 -0.18897247z" fill-rule="evenodd"></path><path fill="#434343" d="m46.552734 8.645115l0.69291306 0.18897629l-14.078739 56.15748l-0.69291306 -0.18897247z" fill-rule="evenodd"></path><path stroke="#000000" stroke-width="1.0" stroke-linejoin="round" stroke-linecap="butt" d="m46.552734 8.645115l0.69291306 0.18897629l-14.078739 56.15748l-0.69291306 -0.18897247z" fill-rule="evenodd"></path><path fill="#434343" d="m48.82804 9.203572l0.69291306 0.18897629l-14.078739 56.15748l-0.69291306 -0.18897247z" fill-rule="evenodd"></path><path stroke="#000000" stroke-width="1.0" stroke-linejoin="round" stroke-linecap="butt" d="m48.82804 9.203572l0.69291306 0.18897629l-14.078739 56.15748l-0.69291306 -0.18897247z" fill-rule="evenodd"></path><path fill="#434343" d="m51.103348 9.76203l0.69291306 0.18897629l-14.078743 56.15748l-0.69291306 -0.18897247z" fill-rule="evenodd"></path><path stroke="#000000" stroke-width="1.0" stroke-linejoin="round" stroke-linecap="butt" d="m51.103348 9.76203l0.69291306 0.18897629l-14.078743 56.15748l-0.69291306 -0.18897247z" fill-rule="evenodd"></path><path fill="#434343" d="m53.37865 10.320486l0.69291306 0.18897629l-14.078739 56.157486l-0.69291306 -0.1889801z" fill-rule="evenodd"></path><path stroke="#000000" stroke-width="1.0" stroke-linejoin="round" stroke-linecap="butt" d="m53.37865 10.320486l0.69291306 0.18897629l-14.078739 56.157486l-0.69291306 -0.1889801z" fill-rule="evenodd"></path><path fill="#434343" d="m55.653957 10.878943l0.69291306 0.18897629l-14.078739 56.157482l-0.69291687 -0.1889801z" fill-rule="evenodd"></path><path stroke="#000000" stroke-width="1.0" stroke-linejoin="round" stroke-linecap="butt" d="m55.653957 10.878943l0.69291306 0.18897629l-14.078739 56.157482l-0.69291687 -0.1889801z" fill-rule="evenodd"></path><path fill="#434343" d="m57.92926 11.437401l0.69291306 0.18897629l-14.078739 56.157482l-0.69291306 -0.1889801z" fill-rule="evenodd"></path><path stroke="#000000" stroke-width="1.0" stroke-linejoin="round" stroke-linecap="butt" d="m57.92926 11.437401l0.69291306 0.18897629l-14.078739 56.157482l-0.69291306 -0.1889801z" fill-rule="evenodd"></path><path fill="#434343" d="m60.204567 11.995858l0.69291306 0.18897629l-14.078739 56.157482l-0.69291306 -0.1889801z" fill-rule="evenodd"></path><path stroke="#000000" stroke-width="1.0" stroke-linejoin="round" stroke-linecap="butt" d="m60.204567 11.995858l0.69291306 0.18897629l-14.078739 56.157482l-0.69291306 -0.1889801z" fill-rule="evenodd"></path><path fill="#434343" d="m62.479874 12.554315l0.69291306 0.18897629l-14.078743 56.157482l-0.69291306 -0.1889801z" fill-rule="evenodd"></path><path stroke="#000000" stroke-width="1.0" stroke-linejoin="round" stroke-linecap="butt" d="m62.479874 12.554315l0.69291306 0.18897629l-14.078743 56.157482l-0.69291306 -0.1889801z" fill-rule="evenodd"></path><path fill="#434343" d="m64.75518 13.112772l0.69290924 0.18897629l-14.078739 56.15748l-0.69291306 -0.18897247z" fill-rule="evenodd"></path><path stroke="#000000" stroke-width="1.0" stroke-linejoin="round" stroke-linecap="butt" d="m64.75518 13.112772l0.69290924 0.18897629l-14.078739 56.15748l-0.69291306 -0.18897247z" fill-rule="evenodd"></path><path fill="#434343" d="m15.626688 27.411413l0.7244091 -0.12598419l10.267717 56.97638l-0.7244091 0.12598419z" fill-rule="evenodd"></path><path stroke="#000000" stroke-width="1.0" stroke-linejoin="round" stroke-linecap="butt" d="m15.626688 27.411413l0.7244091 -0.12598419l10.267717 56.97638l-0.7244091 0.12598419z" fill-rule="evenodd"></path><path fill="#434343" d="m17.930344 26.984728l0.7244091 -0.12598419l10.267717 56.97638l-0.7244091 0.12598419z" fill-rule="evenodd"></path><path stroke="#000000" stroke-width="1.0" stroke-linejoin="round" stroke-linecap="butt" d="m17.930344 26.984728l0.7244091 -0.12598419l10.267717 56.97638l-0.7244091 0.12598419z" fill-rule="evenodd"></path><path fill="#434343" d="m20.234 26.558044l0.7244091 -0.12598419l10.267717 56.97638l-0.724411 0.12598419z" fill-rule="evenodd"></path><path stroke="#000000" stroke-width="1.0" stroke-linejoin="round" stroke-linecap="butt" d="m20.234 26.558044l0.7244091 -0.12598419l10.267717 56.97638l-0.724411 0.12598419z" fill-rule="evenodd"></path><path fill="#434343" d="m22.537655 26.13136l0.7244091 -0.12598419l10.267717 56.976376l-0.724411 0.12598419z" fill-rule="evenodd"></path><path stroke="#000000" stroke-width="1.0" stroke-linejoin="round" stroke-linecap="butt" d="m22.537655 26.13136l0.7244091 -0.12598419l10.267717 56.976376l-0.724411 0.12598419z" fill-rule="evenodd"></path><path fill="#434343" d="m24.84131 25.704674l0.7244091 -0.12598419l10.267715 56.97638l-0.7244072 0.12598419z" fill-rule="evenodd"></path><path stroke="#000000" stroke-width="1.0" stroke-linejoin="round" stroke-linecap="butt" d="m24.84131 25.704674l0.7244091 -0.12598419l10.267715 56.97638l-0.7244072 0.12598419z" fill-rule="evenodd"></path><path fill="#434343" d="m27.144964 25.277988l0.724411 -0.12598419l10.267717 56.976376l-0.724411 0.12598419z" fill-rule="evenodd"></path><path stroke="#000000" stroke-width="1.0" stroke-linejoin="round" stroke-linecap="butt" d="m27.144964 25.277988l0.724411 -0.12598419l10.267717 56.976376l-0.724411 0.12598419z" fill-rule="evenodd"></path><path fill="#434343" d="m29.44862 24.851303l0.724411 -0.12598419l10.267715 56.97638l-0.724411 0.12598419z" fill-rule="evenodd"></path><path stroke="#000000" stroke-width="1.0" stroke-linejoin="round" stroke-linecap="butt" d="m29.44862 24.851303l0.724411 -0.12598419l10.267715 56.97638l-0.724411 0.12598419z" fill-rule="evenodd"></path><path fill="#434343" d="m31.752275 24.42462l0.7244091 -0.12598419l10.267715 56.97637l-0.7244072 0.12598419z" fill-rule="evenodd"></path><path stroke="#000000" stroke-width="1.0" stroke-linejoin="round" stroke-linecap="butt" d="m31.752275 24.42462l0.7244091 -0.12598419l10.267715 56.97637l-0.7244072 0.12598419z" fill-rule="evenodd"></path><path fill="#434343" d="m34.05593 23.997934l0.724411 -0.12598419l10.267715 56.97638l-0.724411 0.12598419z" fill-rule="evenodd"></path><path stroke="#000000" stroke-width="1.0" stroke-linejoin="round" stroke-linecap="butt" d="m34.05593 23.997934l0.724411 -0.12598419l10.267715 56.97638l-0.724411 0.12598419z" fill-rule="evenodd"></path><path fill="#434343" d="m36.359585 23.571249l0.724411 -0.12598419l10.267715 56.97638l-0.7244072 0.12598419z" fill-rule="evenodd"></path><path stroke="#000000" stroke-width="1.0" stroke-linejoin="round" stroke-linecap="butt" d="m36.359585 23.571249l0.724411 -0.12598419l10.267715 56.97638l-0.7244072 0.12598419z" fill-rule="evenodd"></path><path fill="#434343" d="m38.663242 23.144564l0.7244072 -0.12598419l10.267719 56.97638l-0.724411 0.12598419z" fill-rule="evenodd"></path><path stroke="#000000" stroke-width="1.0" stroke-linejoin="round" stroke-linecap="butt" d="m38.663242 23.144564l0.7244072 -0.12598419l10.267719 56.97638l-0.724411 0.12598419z" fill-rule="evenodd"></path><path fill="#434343" d="m40.966896 22.71788l0.724411 -0.12598419l10.267715 56.97638l-0.7244072 0.12598419z" fill-rule="evenodd"></path><path stroke="#000000" stroke-width="1.0" stroke-linejoin="round" stroke-linecap="butt" d="m40.966896 22.71788l0.724411 -0.12598419l10.267715 56.97638l-0.7244072 0.12598419z" fill-rule="evenodd"></path><path fill="#434343" d="m40.966896 22.71788l0.724411 -0.12598419l10.267715 56.97638l-0.7244072 0.12598419z" fill-rule="evenodd"></path><path stroke="#000000" stroke-width="1.0" stroke-linejoin="round" stroke-linecap="butt" d="m40.966896 22.71788l0.724411 -0.12598419l10.267715 56.97638l-0.7244072 0.12598419z" fill-rule="evenodd"></path><path fill="#434343" d="m43.270554 22.291195l0.7244072 -0.12598419l10.267719 56.976376l-0.724411 0.12598419z" fill-rule="evenodd"></path><path stroke="#000000" stroke-width="1.0" stroke-linejoin="round" stroke-linecap="butt" d="m43.270554 22.291195l0.7244072 -0.12598419l10.267719 56.976376l-0.724411 0.12598419z" fill-rule="evenodd"></path><path fill="#434343" d="m45.574207 21.86451l0.724411 -0.12598419l10.267715 56.97638l-0.724411 0.12598419z" fill-rule="evenodd"></path><path stroke="#000000" stroke-width="1.0" stroke-linejoin="round" stroke-linecap="butt" d="m45.574207 21.86451l0.724411 -0.12598419l10.267715 56.97638l-0.724411 0.12598419z" fill-rule="evenodd"></path><path fill="#434343" d="m47.877865 21.437824l0.7244072 -0.12598419l10.267715 56.976376l-0.7244072 0.12598419z" fill-rule="evenodd"></path><path stroke="#000000" stroke-width="1.0" stroke-linejoin="round" stroke-linecap="butt" d="m47.877865 21.437824l0.7244072 -0.12598419l10.267715 56.976376l-0.7244072 0.12598419z" fill-rule="evenodd"></path><path fill="#434343" d="m50.18152 21.01114l0.724411 -0.12598419l10.267715 56.97638l-0.724411 0.12598419z" fill-rule="evenodd"></path><path stroke="#000000" stroke-width="1.0" stroke-linejoin="round" stroke-linecap="butt" d="m50.18152 21.01114l0.724411 -0.12598419l10.267715 56.97638l-0.724411 0.12598419z" fill-rule="evenodd"></path><path fill="#434343" d="m52.485172 20.584455l0.724411 -0.12598419l10.267715 56.97638l-0.7244072 0.12598419z" fill-rule="evenodd"></path><path stroke="#000000" stroke-width="1.0" stroke-linejoin="round" stroke-linecap="butt" d="m52.485172 20.584455l0.724411 -0.12598419l10.267715 56.97638l-0.7244072 0.12598419z" fill-rule="evenodd"></path><path fill="#434343" d="m54.78883 20.15777l0.7244072 -0.12598419l10.267715 56.97638l-0.7244034 0.12598419z" fill-rule="evenodd"></path><path stroke="#000000" stroke-width="1.0" stroke-linejoin="round" stroke-linecap="butt" d="m54.78883 20.15777l0.7244072 -0.12598419l10.267715 56.97638l-0.7244034 0.12598419z" fill-rule="evenodd"></path><path fill="#434343" d="m57.092484 19.731085l0.724411 -0.12598419l10.267715 56.97638l-0.724411 0.12598419z" fill-rule="evenodd"></path><path stroke="#000000" stroke-width="1.0" stroke-linejoin="round" stroke-linecap="butt" d="m57.092484 19.731085l0.724411 -0.12598419l10.267715 56.97638l-0.724411 0.12598419z" fill-rule="evenodd"></path><path fill="#434343" d="m59.39614 19.304401l0.7244072 -0.12598419l10.267719 56.976376l-0.724411 0.12598419z" fill-rule="evenodd"></path><path stroke="#000000" stroke-width="1.0" stroke-linejoin="round" stroke-linecap="butt" d="m59.39614 19.304401l0.7244072 -0.12598419l10.267719 56.976376l-0.724411 0.12598419z" fill-rule="evenodd"></path><path fill="#434343" d="m61.699795 18.877716l0.724411 -0.12598419l10.267712 56.97638l-0.7244034 0.12598419z" fill-rule="evenodd"></path><path stroke="#000000" stroke-width="1.0" stroke-linejoin="round" stroke-linecap="butt" d="m61.699795 18.877716l0.724411 -0.12598419l10.267712 56.97638l-0.7244034 0.12598419z" fill-rule="evenodd"></path><path fill="#434343" d="m64.00345 18.45103l0.724411 -0.12598419l10.267715 56.976376l-0.724411 0.12598419z" fill-rule="evenodd"></path><path stroke="#000000" stroke-width="1.0" stroke-linejoin="round" stroke-linecap="butt" d="m64.00345 18.45103l0.724411 -0.12598419l10.267715 56.976376l-0.724411 0.12598419z" fill-rule="evenodd"></path><path fill="#434343" d="m66.307106 18.024345l0.724411 -0.12598419l10.267715 56.97638l-0.724411 0.12598419z" fill-rule="evenodd"></path><path stroke="#000000" stroke-width="1.0" stroke-linejoin="round" stroke-linecap="butt" d="m66.307106 18.024345l0.724411 -0.12598419l10.267715 56.97638l-0.724411 0.12598419z" fill-rule="evenodd"></path><path fill="#434343" d="m35.482048 54.34328l0.5984268 -0.40944672l32.09449 48.188976l-0.5984268 0.40944672z" fill-rule="evenodd"></path><path stroke="#000000" stroke-width="1.0" stroke-linejoin="round" stroke-linecap="butt" d="m35.482048 54.34328l0.5984268 -0.40944672l32.09449 48.188976l-0.5984268 0.40944672z" fill-rule="evenodd"></path><path fill="#434343" d="m37.425255 53.034527l0.598423 -0.40944672l32.094486 48.188976l-0.5984192 0.40944672z" fill-rule="evenodd"></path><path stroke="#000000" stroke-width="1.0" stroke-linejoin="round" stroke-linecap="butt" d="m37.425255 53.034527l0.598423 -0.40944672l32.094486 48.188976l-0.5984192 0.40944672z" fill-rule="evenodd"></path><path fill="#434343" d="m39.36846 51.725773l0.598423 -0.40945053l32.094486 48.18898l-0.5984192 0.40944672z" fill-rule="evenodd"></path><path stroke="#000000" stroke-width="1.0" stroke-linejoin="round" stroke-linecap="butt" d="m39.36846 51.725773l0.598423 -0.40945053l32.094486 48.18898l-0.5984192 0.40944672z" fill-rule="evenodd"></path><path fill="#434343" d="m41.311665 50.41702l0.5984268 -0.40945053l32.094486 48.18898l-0.5984268 0.40944672z" fill-rule="evenodd"></path><path stroke="#000000" stroke-width="1.0" stroke-linejoin="round" stroke-linecap="butt" d="m41.311665 50.41702l0.5984268 -0.40945053l32.094486 48.18898l-0.5984268 0.40944672z" fill-rule="evenodd"></path><path fill="#434343" d="m43.25487 49.108265l0.5984268 -0.40945053l32.094486 48.18898l-0.5984268 0.40944672z" fill-rule="evenodd"></path><path stroke="#000000" stroke-width="1.0" stroke-linejoin="round" stroke-linecap="butt" d="m43.25487 49.108265l0.5984268 -0.40945053l32.094486 48.18898l-0.5984268 0.40944672z" fill-rule="evenodd"></path><path fill="#434343" d="m45.19808 47.79951l0.5984268 -0.40945053l32.094486 48.18898l-0.5984268 0.40944672z" fill-rule="evenodd"></path><path stroke="#000000" stroke-width="1.0" stroke-linejoin="round" stroke-linecap="butt" d="m45.19808 47.79951l0.5984268 -0.40945053l32.094486 48.18898l-0.5984268 0.40944672z" fill-rule="evenodd"></path><path fill="#434343" d="m47.141285 46.490757l0.5984268 -0.40945053l32.094486 48.18898l-0.5984268 0.40944672z" fill-rule="evenodd"></path><path stroke="#000000" stroke-width="1.0" stroke-linejoin="round" stroke-linecap="butt" d="m47.141285 46.490757l0.5984268 -0.40945053l32.094486 48.18898l-0.5984268 0.40944672z" fill-rule="evenodd"></path><path fill="#434343" d="m49.08449 45.182003l0.598423 -0.40945053l32.09449 48.18898l-0.5984268 0.40944672z" fill-rule="evenodd"></path><path stroke="#000000" stroke-width="1.0" stroke-linejoin="round" stroke-linecap="butt" d="m49.08449 45.182003l0.598423 -0.40945053l32.09449 48.18898l-0.5984268 0.40944672z" fill-rule="evenodd"></path><path fill="#434343" d="m51.0277 43.87325l0.598423 -0.40945053l32.09449 48.18898l-0.5984268 0.40944672z" fill-rule="evenodd"></path><path stroke="#000000" stroke-width="1.0" stroke-linejoin="round" stroke-linecap="butt" d="m51.0277 43.87325l0.598423 -0.40945053l32.09449 48.18898l-0.5984268 0.40944672z" fill-rule="evenodd"></path><path fill="#434343" d="m52.970905 42.564495l0.598423 -0.40945053l32.09449 48.18898l-0.5984268 0.40944672z" fill-rule="evenodd"></path><path stroke="#000000" stroke-width="1.0" stroke-linejoin="round" stroke-linecap="butt" d="m52.970905 42.564495l0.598423 -0.40945053l32.09449 48.18898l-0.5984268 0.40944672z" fill-rule="evenodd"></path><path fill="#434343" d="m54.91411 41.25574l0.5984268 -0.40945053l32.09449 48.18898l-0.5984268 0.40944672z" fill-rule="evenodd"></path><path stroke="#000000" stroke-width="1.0" stroke-linejoin="round" stroke-linecap="butt" d="m54.91411 41.25574l0.5984268 -0.40945053l32.09449 48.18898l-0.5984268 0.40944672z" fill-rule="evenodd"></path><path fill="#434343" d="m56.857315 39.946987l0.5984268 -0.40945053l32.09449 48.188972l-0.5984268 0.40945435z" fill-rule="evenodd"></path><path stroke="#000000" stroke-width="1.0" stroke-linejoin="round" stroke-linecap="butt" d="m56.857315 39.946987l0.5984268 -0.40945053l32.09449 48.188972l-0.5984268 0.40945435z" fill-rule="evenodd"></path><path fill="#434343" d="m56.857315 39.946987l0.5984268 -0.40945053l32.09449 48.188972l-0.5984268 0.40945435z" fill-rule="evenodd"></path><path stroke="#000000" stroke-width="1.0" stroke-linejoin="round" stroke-linecap="butt" d="m56.857315 39.946987l0.5984268 -0.40945053l32.09449 48.188972l-0.5984268 0.40945435z" fill-rule="evenodd"></path><path fill="#434343" d="m58.80052 38.63823l0.5984268 -0.40944672l32.09449 48.188972l-0.5984268 0.40945435z" fill-rule="evenodd"></path><path stroke="#000000" stroke-width="1.0" stroke-linejoin="round" stroke-linecap="butt" d="m58.80052 38.63823l0.5984268 -0.40944672l32.09449 48.188972l-0.5984268 0.40945435z" fill-rule="evenodd"></path><path fill="#434343" d="m60.74373 37.329475l0.598423 -0.40944672l32.094494 48.188972l-0.5984268 0.40945435z" fill-rule="evenodd"></path><path stroke="#000000" stroke-width="1.0" stroke-linejoin="round" stroke-linecap="butt" d="m60.74373 37.329475l0.598423 -0.40944672l32.094494 48.188972l-0.5984268 0.40945435z" fill-rule="evenodd"></path><path fill="#434343" d="m62.686935 36.02072l0.598423 -0.40944672l32.094486 48.188972l-0.5984192 0.40945435z" fill-rule="evenodd"></path><path stroke="#000000" stroke-width="1.0" stroke-linejoin="round" stroke-linecap="butt" d="m62.686935 36.02072l0.598423 -0.40944672l32.094486 48.188972l-0.5984192 0.40945435z" fill-rule="evenodd"></path><path fill="#434343" d="m64.63014 34.711967l0.5984268 -0.40944672l32.094482 48.188972l-0.5984192 0.40945435z" fill-rule="evenodd"></path><path stroke="#000000" stroke-width="1.0" stroke-linejoin="round" stroke-linecap="butt" d="m64.63014 34.711967l0.5984268 -0.40944672l32.094482 48.188972l-0.5984192 0.40945435z" fill-rule="evenodd"></path><path fill="#434343" d="m66.57335 33.403214l0.5984268 -0.40944672l32.094482 48.188972l-0.5984192 0.40945435z" fill-rule="evenodd"></path><path stroke="#000000" stroke-width="1.0" stroke-linejoin="round" stroke-linecap="butt" d="m66.57335 33.403214l0.5984268 -0.40944672l32.094482 48.188972l-0.5984192 0.40945435z" fill-rule="evenodd"></path><path fill="#434343" d="m68.516556 32.09446l0.5984192 -0.40944862l32.09449 48.188972l-0.5984268 0.40945435z" fill-rule="evenodd"></path><path stroke="#000000" stroke-width="1.0" stroke-linejoin="round" stroke-linecap="butt" d="m68.516556 32.09446l0.5984192 -0.40944862l32.09449 48.188972l-0.5984268 0.40945435z" fill-rule="evenodd"></path><path fill="#434343" d="m70.45976 30.785706l0.5984192 -0.40944862l32.09449 48.188972l-0.5984268 0.40945435z" fill-rule="evenodd"></path><path stroke="#000000" stroke-width="1.0" stroke-linejoin="round" stroke-linecap="butt" d="m70.45976 30.785706l0.5984192 -0.40944862l32.09449 48.188972l-0.5984268 0.40945435z" fill-rule="evenodd"></path><path fill="#434343" d="m72.40297 29.476952l0.5984192 -0.40944862l32.09449 48.188972l-0.5984268 0.40945435z" fill-rule="evenodd"></path><path stroke="#000000" stroke-width="1.0" stroke-linejoin="round" stroke-linecap="butt" d="m72.40297 29.476952l0.5984192 -0.40944862l32.09449 48.188972l-0.5984268 0.40945435z" fill-rule="evenodd"></path><path fill="#434343" d="m74.34617 28.168198l0.5984268 -0.40944862l32.09449 48.188972l-0.5984268 0.40945435z" fill-rule="evenodd"></path><path stroke="#000000" stroke-width="1.0" stroke-linejoin="round" stroke-linecap="butt" d="m74.34617 28.168198l0.5984268 -0.40944862l32.09449 48.188972l-0.5984268 0.40945435z" fill-rule="evenodd"></path><path fill="#434343" d="m76.289375 26.859444l0.5984268 -0.40944862l32.09449 48.188972l-0.5984268 0.40944672z" fill-rule="evenodd"></path><path stroke="#000000" stroke-width="1.0" stroke-linejoin="round" stroke-linecap="butt" d="m76.289375 26.859444l0.5984268 -0.40944862l32.09449 48.188972l-0.5984268 0.40944672z" fill-rule="evenodd"></path><path fill="#434343" d="m78.23258 25.55069l0.5984268 -0.40944862l32.09449 48.188972l-0.5984268 0.40944672z" fill-rule="evenodd"></path><path stroke="#000000" stroke-width="1.0" stroke-linejoin="round" stroke-linecap="butt" d="m78.23258 25.55069l0.5984268 -0.40944862l32.09449 48.188972l-0.5984268 0.40944672z" fill-rule="evenodd"></path><path fill="#000000" fill-opacity="0.0" d="m108.692055 11.423829l194.70868 0l0 35.14961l-194.70868 0z" fill-rule="evenodd"></path><path fill="#000000" d="m121.567055 26.523203l-1.09375 0q0 0 0 2.703125q0 0.40625 0.09375 0.609375q0.109375 0.1875 0.21875 0.1875q0.171875 0 0.3125 -0.171875q0.15625 -0.171875 0.40625 -0.828125l0.625 0.34375q-0.1875 0.4375 -0.265625 0.59375q-0.078125 0.15625 -0.25 0.359375q-0.15625 0.203125 -0.40625 0.3125q-0.25 0.109375 -0.59375 0.109375q-0.734375 0 -1.125 -0.453125q-0.1875 -0.1875 -0.265625 -0.53125q-0.0625 -0.34375 -0.0625 -0.921875l0 -2.3125l-0.90625 0l0 -0.578125q0.421875 0 0.75 -0.125q0.328125 -0.140625 0.4375 -0.265625q0.125 -0.15625 0.234375 -0.453125q0.125 -0.3125 0.125 -0.8125l0.703125 0q-0.046875 0.578125 -0.046875 1.265625q0 0.078125 0 0.25q0 0.15625 -0.140625 0.15625l1.421875 -0.15625l-0.171875 0.71875zm0.80856323 -3.125l0.234375 0q0.828125 0 1.765625 -0.328125l-0.15625 3.765625q-0.09375 -0.078125 0 -0.1875q0.109375 -0.125 0.296875 -0.34375q0.203125 -0.21875 0.46875 -0.328125q0.28125 -0.109375 0.625 -0.109375q0.453125 0 0.796875 0.21875q0.34375 0.203125 0.515625 0.515625q0.1875 0.3125 0.265625 0.59375q0.078125 0.265625 0.078125 0.484375q0 0.3125 0 1.09375q0 0.78125 0 1.015625q0 0.25 0 0.265625q-0.078125 0 0.015625 0q0.09375 -0.015625 0.171875 -0.015625q0.078125 0 0.53125 0.03125l0 0.625q-0.6875 -0.078125 -1.375 -0.078125q-0.71875 0 -1.359375 0.078125l0 -0.59375q0.25 -0.0625 0.34375 -0.0625q0.09375 0 0.171875 0q0.09375 -0.015625 0.140625 -0.03125q0.046875 -0.015625 0.09375 0.015625q0.046875 0.03125 -0.0625 0.03125q0 0 0 0l0 -2.5625q0 -0.765625 -0.515625 -0.78125q-0.359375 0 -0.578125 0.171875q-0.203125 0.171875 -0.484375 0.59375l0 2.578125q-0.078125 0 0 0q0.09375 -0.015625 0.234375 -0.015625q0.15625 0 0.5 0.03125l0 0.609375q-0.71875 -0.0625 -1.40625 -0.0625q-0.65625 0 -1.3125 0.078125l0 -0.640625q0.375 0 0.578125 0q0.203125 0 0.109375 0q0 -0.40625 0.015625 -1.671875q0.015625 -1.265625 0.015625 -2.0q0 -1.53125 -0.03125 -2.265625q0.015625 0.015625 -0.0625 0q-0.078125 -0.03125 -0.140625 -0.046875q-0.0625 -0.015625 -0.484375 -0.078125l0 -0.59375zm7.2807236 4.328125l1.515625 0.03125q-0.03125 0 -0.03125 -0.15625q0 -0.3125 -0.046875 -0.5q-0.0625 -0.265625 -0.265625 -0.4375q-0.203125 -0.171875 -0.515625 -0.171875q-0.265625 0 -0.453125 0.375q-0.171875 0.375 -0.203125 0.859375zm-0.03125 0.609375l0 0.015625q0 0.71875 0.25 1.265625q0.25 0.53125 0.640625 0.53125q0.53125 0 0.84375 -0.3125q0.328125 -0.328125 0.546875 -0.9375l0.671875 0.484375q-0.25 0.625 -0.765625 1.046875q-0.515625 0.421875 -1.34375 0.421875q-1.0 0 -1.671875 -0.625q-0.671875 -0.640625 -0.671875 -1.828125q0 -0.671875 0.234375 -1.1875q0.234375 -0.53125 0.609375 -0.8125q0.390625 -0.296875 0.78125 -0.421875q0.390625 -0.125 0.796875 -0.125q0.640625 0 1.203125 0.359375q0.5625 0.34375 0.75 1.140625q0.03125 0.234375 0.03125 0.46875q0 0.125 0 0.5l-2.90625 0.015625z" fill-rule="nonzero"></path><path fill="#000000" d="m130.2233 45.468826q0 1.078125 -0.390625 2.09375q-0.375 1.015625 -1.125 1.90625q-0.7499924 0.890625 -2.0156174 1.421875q-1.265625 0.515625 -2.875 0.515625q-0.125 0 -0.75 -0.015625q-0.625 -0.015625 -1.71875 -0.03125q-1.09375 0 -2.75 0l0 -1.015625q1.5625 -0.125 1.640625 -0.53125l0 -9.3125q-0.015625 -0.125 -0.0625 -0.203125q-0.046875 -0.09375 -0.25 -0.15625q-0.1875 -0.0625 -0.296875 -0.078125q-0.109375 -0.015625 -0.78125 -0.109375l0 -1.03125q1.46875 0 3.21875 -0.015625q1.765625 -0.015625 2.234375 -0.015625q0.96875 0 1.9375 0.34375q0.984375 0.34375 1.9062424 1.078125q0.9375 0.71875 1.5 2.078125q0.578125 1.34375 0.578125 3.078125zm-2.7656174 0.125q0 -0.0625 0 -0.125q0 -1.421875 -0.171875 -2.34375q-0.171875 -0.9375 -0.59375 -1.625q-0.40625 -0.703125 -1.15625 -1.015625q-0.75 -0.328125 -1.953125 -0.328125q-0.546875 0 -0.796875 0.015625q0 0.140625 0 1.328125q0 1.03125 0 3.5q0 2.46875 0 3.328125q0 1.078125 0 1.375q0 0.203125 0.171875 0.390625q0.1875 0.171875 0.46875 0.171875q1.296875 0 2.0625 -0.25q0.78125 -0.25 1.1875 -0.828125q0.421875 -0.578125 0.578125 -1.40625q0.171875 -0.828125 0.203125 -2.1875zm6.0218124 0.6875l2.640625 0.03125q-0.046875 0 -0.046875 -0.265625q0 -0.53125 -0.078125 -0.828125q-0.125 -0.484375 -0.484375 -0.78125q-0.34375 -0.296875 -0.875 -0.296875q-0.453125 0 -0.78125 0.640625q-0.3125 0.640625 -0.375 1.5zm-0.03125 1.03125l0 0.03125q0 1.265625 0.421875 2.203125q0.421875 0.921875 1.109375 0.921875q0.921875 0 1.46875 -0.546875q0.546875 -0.546875 0.9375 -1.625l1.15625 0.84375q-0.421875 1.0625 -1.3125 1.796875q-0.875 0.71875 -2.3125 0.71875q-1.734375 0 -2.890625 -1.09375q-1.15625 -1.09375 -1.15625 -3.125q0 -1.171875 0.390625 -2.078125q0.40625 -0.90625 1.0625 -1.390625q0.671875 -0.484375 1.328125 -0.703125q0.671875 -0.21875 1.390625 -0.21875q1.109375 0 2.078125 0.609375q0.984375 0.609375 1.265625 1.96875q0.09375 0.390625 0.09375 0.8125q0 0.21875 -0.03125 0.859375l-5.0 0.015625zm10.323547 -4.109375l-0.1875 1.078125q-0.9375 0 -0.9375 0.15625q0 0.03125 0.03125 0.125l1.640625 4.03125l1.5 -4.015625q0.03125 -0.09375 0.03125 -0.15625q0 0 -0.078125 -0.046875q-0.0625 -0.0625 -0.1875 -0.0625q-0.125 -0.015625 -0.828125 -0.046875l0.125 -1.03125q0.828125 0.078125 1.71875 0.078125q0.96875 0 2.0 -0.078125l-0.125 1.046875q-0.828125 0 -1.015625 0.15625q-0.171875 0.140625 -0.390625 0.625l-2.4375 6.46875l-1.484375 0l-2.984375 -6.734375q-0.125 -0.28125 -0.34375 -0.375q-0.203125 -0.109375 -1.171875 -0.15625l0.125 -1.015625q2.203125 0.109375 2.859375 0.109375q0.921875 0 2.140625 -0.15625zm7.963135 3.078125l2.640625 0.03125q-0.046875 0 -0.046875 -0.265625q0 -0.53125 -0.078125 -0.828125q-0.125 -0.484375 -0.484375 -0.78125q-0.34375 -0.296875 -0.875 -0.296875q-0.453125 0 -0.78125 0.640625q-0.3125 0.640625 -0.375 1.5zm-0.03125 1.03125l0 0.03125q0 1.265625 0.421875 2.203125q0.421875 0.921875 1.109375 0.921875q0.921875 0 1.46875 -0.546875q0.546875 -0.546875 0.9375 -1.625l1.15625 0.84375q-0.421875 1.0625 -1.3125 1.796875q-0.875 0.71875 -2.3125 0.71875q-1.734375 0 -2.890625 -1.09375q-1.15625 -1.09375 -1.15625 -3.125q0 -1.171875 0.390625 -2.078125q0.40625 -0.90625 1.0625 -1.390625q0.671875 -0.484375 1.328125 -0.703125q0.671875 -0.21875 1.390625 -0.21875q1.109375 0 2.078125 0.609375q0.984375 0.609375 1.265625 1.96875q0.09375 0.390625 0.09375 0.8125q0 0.21875 -0.03125 0.859375l-5.0 0.015625zm9.057922 -8.984375q-0.09375 2.25 -0.109375 4.453125q0 0.890625 0.015625 3.34375q0.03125 2.4375 0.03125 4.109375q-0.078125 -0.015625 0.28125 0.015625q0.359375 0.03125 1.0 0.0625l0 1.078125q-1.203125 -0.140625 -2.328125 -0.140625q-1.296875 0 -2.515625 0.140625l0 -1.078125q1.25 -0.0625 1.25 -0.0625q0.0625 -1.734375 0.0625 -4.84375q0 -3.328125 -0.0625 -5.34375q-0.21875 -0.1875 -1.25 -0.1875l0 -1.046875q1.3125 -0.078125 3.625 -0.5zm5.8461914 12.109375q0.78125 0 1.25 -0.78125q0.484375 -0.796875 0.484375 -2.4375q0 -1.359375 -0.515625 -2.296875q-0.515625 -0.9375 -1.265625 -0.9375q-0.515625 0 -0.890625 0.28125q-0.375 0.28125 -0.5625 0.8125q-0.1875 0.53125 -0.28125 1.09375q-0.09375 0.5625 -0.09375 1.171875q0 1.4375 0.5 2.265625q0.515625 0.828125 1.375 0.828125zm-0.21875 -7.578125q1.8125 0 3.0625 1.265625q1.265625 1.25 1.265625 2.890625q0 1.921875 -1.0625 3.28125q-1.046875 1.359375 -3.109375 1.359375q-4.265625 0 -4.265625 -4.625q0 -1.796875 1.25 -2.984375q1.265625 -1.1875 2.859375 -1.1875zm8.198181 2.796875l-0.171875 1.84375l0.015625 2.078125q0.546875 0.609375 1.640625 0.609375q0.546875 0 0.875 -0.6875q0.34375 -0.703125 0.34375 -2.125q0 -1.453125 -0.328125 -2.1875q-0.328125 -0.734375 -0.78125 -0.734375q-1.015625 0 -1.59375 1.203125zm-3.828125 -2.453125q1.765625 0 3.46875 -0.4375l0.15625 1.1875q0.015625 -0.0625 0.640625 -0.5625q0.640625 -0.515625 1.59375 -0.515625q1.40625 0 2.390625 1.265625q1.0 1.265625 1.0 2.890625q0 1.765625 -1.046875 3.09375q-1.03125 1.328125 -3.0 1.328125q-1.25 0 -1.546875 -0.296875l0.015625 3.03125q-0.015625 0 0.4375 0.09375q0.453125 0.109375 1.265625 0.109375l-0.125 1.03125q-1.28125 -0.0625 -2.6875 -0.0625q-1.40625 0 -2.53125 0.078125l0 -1.03125q1.296875 -0.03125 1.296875 -0.09375q0.078125 -2.21875 0.09375 -5.9375q0 -2.609375 -0.046875 -3.875q-0.484375 -0.21875 -1.375 -0.296875l0 -1.0zm12.458252 3.078125l2.640625 0.03125q-0.046875 0 -0.046875 -0.265625q0 -0.53125 -0.078125 -0.828125q-0.125 -0.484375 -0.484375 -0.78125q-0.34375 -0.296875 -0.875 -0.296875q-0.453125 0 -0.78125 0.640625q-0.3125 0.640625 -0.375 1.5zm-0.03125 1.03125l0 0.03125q0 1.265625 0.421875 2.203125q0.421875 0.921875 1.109375 0.921875q0.921875 0 1.46875 -0.546875q0.546875 -0.546875 0.9375 -1.625l1.15625 0.84375q-0.421875 1.0625 -1.3125 1.796875q-0.875 0.71875 -2.3125 0.71875q-1.734375 0 -2.890625 -1.09375q-1.15625 -1.09375 -1.15625 -3.125q0 -1.171875 0.390625 -2.078125q0.40625 -0.90625 1.0625 -1.390625q0.671875 -0.484375 1.328125 -0.703125q0.671875 -0.21875 1.390625 -0.21875q1.109375 0 2.078125 0.609375q0.984375 0.609375 1.265625 1.96875q0.09375 0.390625 0.09375 0.8125q0 0.21875 -0.03125 0.859375l-5.0 0.015625zm11.339172 -4.4375q0.875 0 1.34375 0.53125q0.484375 0.53125 0.484375 1.453125q0 0.59375 -0.40625 1.109375q-0.40625 0.515625 -1.0 0.515625q-0.4375 0 -0.859375 -0.34375q-0.421875 -0.359375 -0.46875 -0.890625q0 -0.625 0.625 -0.890625q-0.09375 0.109375 -0.15625 0.046875q-0.0625 -0.078125 -0.1875 -0.078125q-0.34375 0 -0.734375 0.484375q-0.390625 0.46875 -0.578125 0.953125l-0.1875 0.515625l0.046875 3.890625q0 0.046875 1.28125 0.15625l0 1.046875q-1.171875 -0.09375 -2.40625 -0.09375q-1.140625 0 -2.296875 0.09375l0 -1.0625q0.578125 -0.03125 0.96875 -0.078125q0.40625 -0.046875 0.21875 -0.046875l0 -5.921875q0.015625 0.015625 -1.140625 -0.046875l-0.15625 -1.03125q1.453125 0 3.296875 -0.46875l-0.015625 1.84375q-0.140625 -0.140625 0.546875 -0.90625q0.6875 -0.78125 1.78125 -0.78125z" fill-rule="nonzero"></path><path fill="#000000" d="m132.82852 60.7032q1.140625 0 2.1875 0.359375q1.0625 0.359375 1.203125 0.625q-0.109375 -0.015625 -0.03125 -0.125q0.078125 -0.109375 0.09375 -0.1875q0.015625 -0.078125 0.109375 -0.8125l1.296875 0l-0.046875 4.59375l-1.078125 0q-0.25 -1.671875 -1.1875 -2.421875q-0.9375 -0.765625 -2.6875 -0.765625q-1.625 0 -2.46875 1.375q-0.84375 1.359375 -0.875 3.8125q0 5.28125 3.59375 5.28125q0.84375 0 1.453125 -0.21875q0.625 -0.234375 1.0625 -0.6875q0.453125 -0.453125 0.71875 -0.921875q0.28125 -0.46875 0.78125 -1.65625l1.046875 0.8125q-1.65625 3.984375 -5.09375 4.0q-2.96875 0 -4.875 -1.703125q-1.8906174 -1.703125 -1.8906174 -4.765625q0 -1.453125 0.453125 -2.640625q0.453125 -1.1875 1.171875 -1.890625q0.7187424 -0.71875 1.6249924 -1.21875q0.921875 -0.5 1.765625 -0.671875q0.859375 -0.171875 1.671875 -0.171875zm9.36792 -0.375q-0.09375 2.25 -0.109375 4.453125q0 0.890625 0.015625 3.34375q0.03125 2.4375 0.03125 4.109375q-0.078125 -0.015625 0.28125 0.015625q0.359375 0.03125 1.0 0.0625l0 1.078125q-1.203125 -0.140625 -2.328125 -0.140625q-1.296875 0 -2.515625 0.140625l0 -1.078125q1.25 -0.0625 1.25 -0.0625q0.0625 -1.734375 0.0625 -4.84375q0 -3.328125 -0.0625 -5.34375q-0.21875 -0.1875 -1.25 -0.1875l0 -1.046875q1.3125 -0.078125 3.625 -0.5zm1.6899414 4.9375q1.984375 0 3.453125 -0.28125l-0.046875 5.53125q0.03125 1.765625 0.625 1.765625q0.421875 0 0.84375 -0.328125q0.421875 -0.328125 0.703125 -0.734375q0.296875 -0.40625 0.46875 -0.78125l0.15625 -0.296875l0 -3.78125q-0.078125 -0.046875 -1.09375 -0.046875l0 -1.046875q2.09375 0 3.5 -0.296875l-0.171875 4.171875q0 0.390625 0 0.921875l0.015625 2.203125q0 0 1.140625 0.046875l0 0.9375q-1.734375 0.09375 -3.265625 0.46875l0.09375 -2.109375l0.1875 0.140625q-0.234375 0.296875 -0.609375 0.703125q-0.375 0.40625 -0.984375 0.75q-0.609375 0.34375 -1.203125 0.34375q-1.46875 0 -2.078125 -0.78125q-0.609375 -0.796875 -0.609375 -2.203125l-0.015625 -4.25q0 0 -1.109375 0l0 -1.046875zm18.861542 3.90625q0 1.9375 -1.171875 3.15625q-1.171875 1.203125 -2.671875 1.203125q-1.28125 0 -2.390625 -1.25q0.078125 0 -0.1875 0.484375q-0.265625 0.46875 -0.40625 0.671875q-0.34375 0.0625 -0.515625 0.0625l-0.640625 -0.078125q0.078125 -2.765625 0.078125 -6.25q0 -3.21875 -0.0625 -5.265625q0.046875 0 -1.328125 -0.03125l0 -0.953125q2.203125 -0.109375 3.640625 -0.78125l-0.25 6.125q-0.125 -0.125 0.140625 -0.40625q0.28125 -0.296875 0.859375 -0.609375q0.578125 -0.3125 1.25 -0.3125q1.59375 0 2.625 1.0625q1.03125 1.0625 1.03125 3.171875zm-2.515625 -0.0625q0 -0.546875 -0.078125 -1.015625q-0.0625 -0.46875 -0.234375 -0.90625q-0.15625 -0.4375 -0.46875 -0.6875q-0.3125 -0.25 -0.765625 -0.25q-0.359375 0 -0.734375 0.3125q-0.375 0.3125 -0.546875 0.59375l-0.171875 0.296875l-0.140625 1.609375l0.0625 2.203125l0.109375 0.171875q0.109375 0.203125 0.4375 0.4375q0.34375 0.21875 0.8125 0.21875q0.734375 0 1.21875 -0.8125q0.5 -0.8125 0.5 -2.171875z" fill-rule="nonzero"></path></g></svg>

