<svg viewBox="0 0 112.19422572178478 100" fill="none" stroke="none" stroke-linecap="square" stroke-miterlimit="10" xmlns="http://www.w3.org/2000/svg"><clipPath id="p.0"><path d="m0 0l112.19423 0l0 100.0l-112.19423 0l0 -100.0z" clip-rule="nonzero"></path></clipPath><g clip-path="url(#p.0)"><path fill="black" fill-opacity="0.0" d="m0 0l112.19423 0l0 100.0l-112.19423 0z" fill-rule="evenodd"></path><path fill="black" fill-opacity="0.0" d="m49.35891 -12.341461l128.25198 0l0 48.409447l-128.25198 0z" fill-rule="evenodd"></path><path fill="black" d="m61.937035 58.28604q-0.75 0 -1.40625 -0.5q-0.640625 -0.5 -1.03125 -1.375q-0.375 -0.890625 -0.375 -1.953125q0 -1.078125 0.375 -1.953125q0.390625 -0.890625 1.03125 -1.390625q0.65625 -0.5 1.40625 -0.5q0.625 0 1.125 0.40625q0.5 0.40625 0.734375 0.984375l0.0625 -0.015625l0 -4.546875q0 -0.1875 -0.078125 -0.265625q-0.078125 -0.09375 -0.265625 -0.09375l-1.15625 0l0 -0.375l2.65625 0l0 10.65625q0 0.1875 0.078125 0.265625q0.078125 0.078125 0.28125 0.078125l0.828125 0l0 0.390625l-2.34375 0l0 -1.1875l-0.0625 -0.015625q-0.296875 0.640625 -0.78125 1.015625q-0.46875 0.375 -1.078125 0.375zm0.1875 -0.4375q0.46875 0 0.875 -0.34375q0.40625 -0.359375 0.625 -0.96875q0.234375 -0.625 0.234375 -1.34375l0 -1.484375q0 -0.71875 -0.234375 -1.328125q-0.21875 -0.625 -0.625 -0.96875q-0.40625 -0.359375 -0.875 -0.359375q-0.796875 0 -1.203125 0.890625q-0.390625 0.875 -0.390625 2.515625q0 1.625 0.390625 2.515625q0.40625 0.875 1.203125 0.875zm8.648895 0.4375q-1.484375 0 -2.390625 -1.0q-0.90625 -1.015625 -0.90625 -2.796875q0 -1.03125 0.390625 -1.921875q0.40625 -0.890625 1.109375 -1.421875q0.71875 -0.53125 1.609375 -0.53125q0.96875 0 1.59375 0.53125q0.625 0.515625 0.90625 1.328125q0.28125 0.8125 0.28125 1.65625q0 0.171875 -0.109375 0.234375q-0.109375 0.046875 -0.390625 0.046875l-3.984375 0q0 1.609375 0.453125 2.5625q0.46875 0.9375 1.5 0.9375q0.734375 0 1.375 -0.5625q0.65625 -0.5625 0.84375 -1.75l0.375 0q-0.09375 1.171875 -0.8125 1.9375q-0.703125 0.75 -1.84375 0.75zm1.21875 -4.25q0 -1.28125 -0.34375 -2.15625q-0.328125 -0.890625 -1.09375 -0.890625q-0.8125 0 -1.25 0.890625q-0.421875 0.890625 -0.421875 2.15625l3.109375 0zm3.6568909 -2.046875q-0.15625 -0.421875 -0.328125 -0.609375q-0.15625 -0.1875 -0.5 -0.1875l-0.46875 0l0 -0.390625l3.46875 0l0 0.390625l-0.453125 0q-0.1875 0 -0.359375 0.109375q-0.15625 0.09375 -0.15625 0.265625q0 0.28125 0.09375 0.53125l1.796875 4.3125l1.296875 -3.78125q0.0625 -0.1875 0.109375 -0.421875q0.0625 -0.25 0.0625 -0.390625q0 -0.28125 -0.15625 -0.453125q-0.15625 -0.171875 -0.421875 -0.171875l-0.375 0l0 -0.390625l2.90625 0l0 0.390625l-0.359375 0q-0.359375 0 -0.65625 0.234375q-0.296875 0.21875 -0.453125 0.703125l-2.109375 6.15625l-0.296875 0l-2.640625 -6.296875zm10.808136 6.296875q-0.9375 0 -1.65625 -0.5q-0.703125 -0.515625 -1.09375 -1.390625q-0.390625 -0.890625 -0.390625 -1.9375q0 -1.0625 0.390625 -1.9375q0.40625 -0.890625 1.109375 -1.390625q0.71875 -0.515625 1.640625 -0.515625q0.734375 0 1.28125 0.3125q0.546875 0.3125 0.828125 0.796875q0.28125 0.484375 0.28125 0.984375q0 0.5 -0.25 0.78125q-0.25 0.265625 -0.625 0.265625q-0.3125 0 -0.53125 -0.203125q-0.21875 -0.203125 -0.21875 -0.5q0 -0.28125 0.15625 -0.46875q0.15625 -0.203125 0.390625 -0.265625q0.25 -0.078125 0.25 -0.28125q0 -0.1875 -0.171875 -0.421875q-0.15625 -0.25 -0.515625 -0.4375q-0.34375 -0.1875 -0.875 -0.1875q-1.015625 0 -1.375 0.875q-0.359375 0.859375 -0.359375 2.59375q0 1.71875 0.34375 2.59375q0.359375 0.859375 1.390625 0.859375q0.96875 0 1.5 -0.6875q0.53125 -0.6875 0.640625 -1.625l0.390625 0q-0.046875 0.65625 -0.34375 1.28125q-0.28125 0.609375 -0.84375 1.015625q-0.5625 0.390625 -1.34375 0.390625zm3.5228882 -0.578125l0.828125 0q0.1875 0 0.265625 -0.078125q0.078125 -0.078125 0.078125 -0.265625l0 -9.921875q0 -0.1875 -0.078125 -0.265625q-0.078125 -0.09375 -0.265625 -0.09375l-0.828125 0l0 -0.375l2.328125 0l0 10.65625q0 0.1875 0.078125 0.265625q0.078125 0.078125 0.28125 0.078125l0.828125 0l0 0.390625l-3.515625 0l0 -0.390625zm7.5543823 0.578125q-1.171875 0 -1.671875 -0.71875q-0.484375 -0.71875 -0.484375 -1.71875l0 -4.3125q0 -0.1875 -0.078125 -0.265625q-0.078125 -0.078125 -0.265625 -0.078125l-0.671875 0l0 -0.390625l2.171875 0l0 5.34375q0 0.703125 0.28125 1.203125q0.28125 0.5 0.953125 0.5q0.5625 0 1.0 -0.390625q0.4375 -0.40625 0.6875 -1.078125q0.25 -0.6875 0.25 -1.515625l0 -3.328125q0 -0.1875 -0.078125 -0.265625q-0.078125 -0.078125 -0.28125 -0.078125l-0.671875 0l0 -0.390625l2.1875 0l0 6.5625q0 0.1875 0.078125 0.265625q0.078125 0.078125 0.265625 0.078125l0.671875 0l0 0.390625l-2.171875 0l0 -1.3125l-0.0625 -0.015625q-0.375 0.765625 -0.921875 1.140625q-0.53125 0.375 -1.1875 0.375zm9.465897 0q-0.640625 0 -1.1875 -0.421875q-0.546875 -0.4375 -0.859375 -1.140625l-0.0625 0l-0.671875 1.375l-0.296875 0l0 -10.65625q0 -0.1875 -0.078125 -0.265625q-0.078125 -0.09375 -0.265625 -0.09375l-0.828125 0l0 -0.375l2.328125 0l0 5.28125l0.0625 0.015625q0.234375 -0.578125 0.734375 -0.984375q0.5 -0.40625 1.125 -0.40625q0.75 0 1.390625 0.5q0.65625 0.5 1.03125 1.390625q0.390625 0.875 0.390625 1.953125q0 1.0625 -0.390625 1.953125q-0.375 0.875 -1.03125 1.375q-0.640625 0.5 -1.390625 0.5zm-0.171875 -0.4375q0.78125 0 1.171875 -0.875q0.40625 -0.890625 0.40625 -2.515625q0 -1.640625 -0.40625 -2.515625q-0.390625 -0.890625 -1.171875 -0.890625q-0.484375 0 -0.890625 0.359375q-0.390625 0.34375 -0.625 0.96875q-0.234375 0.609375 -0.234375 1.328125l0 1.484375q0 0.71875 0.234375 1.34375q0.234375 0.609375 0.625 0.96875q0.40625 0.34375 0.890625 0.34375z" fill-rule="nonzero"></path><path fill="black" fill-opacity="0.0" d="m3.3536603 29.952501l30.267715 0l0 30.425196l-30.267715 0z" fill-rule="evenodd"></path><path stroke="black" stroke-width="1.0" stroke-linejoin="round" stroke-linecap="butt" d="m3.3536603 29.952501l30.267715 0l0 30.425196l-30.267715 0z" fill-rule="evenodd"></path><path fill="black" fill-opacity="0.0" d="m16.94992 37.146988l32.40945 0l0 31.716537l-32.40945 0z" fill-rule="evenodd"></path><path stroke="black" stroke-width="1.0" stroke-linejoin="round" stroke-linecap="butt" d="m16.94992 37.146988l32.40945 0l0 31.716537l-32.40945 0z" fill-rule="evenodd"></path></g></svg>
